<?xml version="1.0" standalone="no"?>
<!DOCTYPE svg PUBLIC "-//W3C//DTD SVG 20010904//EN"
 "http://www.w3.org/TR/2001/REC-SVG-20010904/DTD/svg10.dtd">
<svg version="1.0" xmlns="http://www.w3.org/2000/svg"
 width="700.000000pt" height="700.000000pt" viewBox="0 0 700.000000 700.000000"
 preserveAspectRatio="xMidYMid meet">
<metadata>
Created by potrace 1.11, written by Peter Selinger 2001-2013
</metadata>
<g transform="translate(0.000000,700.000000) scale(0.100000,-0.100000)"
fill="#000000" stroke="none">
<path d="M3417 6604 c-1 -1 -121 -4 -267 -7 -146 -3 -276 -8 -290 -10 -14 -3
-59 -11 -100 -17 -145 -23 -309 -68 -475 -130 -250 -94 -587 -268 -735 -380
-19 -15 -73 -55 -120 -90 -171 -129 -375 -317 -530 -490 -41 -46 -80 -88 -85
-94 -81 -85 -263 -343 -360 -511 -127 -221 -286 -600 -309 -740 -3 -17 -19
-77 -35 -135 -17 -58 -33 -132 -36 -165 -3 -33 -13 -114 -20 -180 -8 -66 -17
-147 -20 -180 -4 -33 -8 -71 -10 -85 -8 -51 -18 -383 -19 -610 l-1 -235 543
-2 542 -2 1 187 c2 684 13 1369 24 1577 2 33 4 82 4 109 1 45 5 52 59 105 50
48 219 158 384 249 20 11 132 77 250 145 117 69 229 134 248 144 19 11 73 43
120 70 47 28 101 60 120 70 19 11 87 51 150 88 63 38 153 90 200 117 47 27 99
58 117 68 18 11 130 76 250 146 120 70 232 135 248 145 65 40 142 77 178 87
65 18 86 8 582 -278 17 -9 179 -102 360 -207 182 -104 404 -232 495 -285 91
-52 185 -106 210 -120 387 -217 687 -399 714 -432 l31 -37 0 -964 c0 -530 4
-967 8 -971 10 -10 104 -12 643 -14 253 -1 473 2 488 6 l28 7 -6 211 c-3 116
-7 220 -10 231 -2 11 -7 76 -11 145 -4 69 -9 141 -10 160 -1 19 -5 82 -9 140
-7 109 -11 167 -21 285 -7 78 -60 322 -105 488 -103 375 -369 859 -644 1171
-419 476 -836 791 -1316 994 -148 63 -352 130 -460 152 -54 10 -145 31 -202
46 -102 27 -106 27 -446 28 -189 1 -344 0 -345 0z"/>
<path d="M3407 5590 c-29 -15 -131 -73 -227 -130 -96 -56 -191 -111 -210 -122
-19 -11 -253 -147 -520 -303 -267 -155 -577 -335 -690 -400 -113 -65 -213
-125 -222 -133 -24 -20 -23 -46 5 -76 17 -20 290 -183 567 -339 19 -11 285
-164 590 -340 305 -176 580 -334 610 -350 30 -16 62 -35 70 -41 40 -30 86 -49
121 -49 30 0 74 21 218 107 99 58 182 106 185 106 2 0 40 22 83 48 43 27 112
68 153 91 41 23 91 51 110 63 19 11 177 103 350 203 173 100 331 192 350 203
19 12 62 36 95 55 84 48 117 67 218 126 49 28 92 51 95 51 28 1 122 98 122
125 0 6 -30 26 -68 45 -37 19 -103 55 -147 81 -44 25 -172 99 -285 164 -113
65 -248 143 -300 173 -52 30 -108 63 -125 72 -16 9 -89 51 -162 93 -72 42
-147 85 -165 96 -18 10 -179 103 -358 207 -369 213 -381 217 -463 174z"/>
<path d="M5535 4242 c-153 -86 -730 -418 -823 -473 -15 -9 -54 -32 -87 -51
-33 -19 -184 -108 -335 -198 -151 -89 -286 -169 -300 -176 -14 -8 -110 -65
-215 -127 l-190 -113 -1 -266 c-1 -147 2 -272 6 -278 4 -7 29 -20 56 -29 44
-15 141 -16 979 -16 904 1 931 1 960 20 17 11 33 24 36 28 8 12 8 1717 0 1721
-3 1 -42 -17 -86 -42z"/>
<path d="M1369 4224 c0 -11 -2 -386 -2 -834 -2 -760 -1 -816 15 -832 16 -16
80 -17 985 -15 533 1 976 6 986 11 16 7 17 31 17 281 l0 272 -192 120 c-157
98 -508 305 -678 400 -19 11 -118 68 -220 128 -155 90 -437 251 -620 353 -25
14 -83 47 -130 74 -46 26 -94 48 -106 48 -12 0 -29 3 -38 6 -11 4 -16 0 -17
-12z"/>
<path d="M1183 2263 c-20 -4 -21 -10 -19 -68 1 -35 5 -67 8 -70 12 -12 85 -12
109 1 46 23 53 76 14 118 -24 26 -52 31 -112 19z"/>
<path d="M3426 2261 c-1 -3 -2 -37 -2 -76 l1 -70 75 0 75 0 0 65 c1 36 0 70
-2 75 -4 11 -142 16 -147 6z"/>
<path d="M5692 2250 c-7 -11 -13 -39 -14 -62 -1 -32 4 -45 21 -60 30 -23 42
-23 75 3 38 30 47 58 30 91 -25 49 -89 65 -112 28z"/>
<path d="M5707 1915 c-33 -42 -34 -70 -3 -91 23 -14 28 -14 59 1 23 11 34 22
32 33 -2 9 -4 20 -4 23 -1 3 -14 19 -29 37 l-28 31 -27 -34z"/>
<path d="M1198 1914 c-27 -14 -32 -24 -28 -54 4 -36 31 -46 113 -41 26 2 24
86 -2 101 -27 14 -51 12 -83 -6z"/>
<path d="M3453 1902 c-22 -14 -30 -54 -20 -94 9 -36 11 -38 52 -38 58 0 77 23
73 86 l-3 49 -45 3 c-25 1 -50 -1 -57 -6z"/>
<path d="M5413 1753 c-13 -5 -18 -59 -7 -86 7 -18 56 -13 95 10 27 16 29 42 5
62 -13 11 -74 20 -93 14z"/>
<path d="M1458 1743 c-2 -5 -4 -24 -3 -43 l1 -35 67 -3 67 -3 1 28 c0 15 2 36
4 46 3 15 -5 17 -65 17 -38 0 -70 -3 -72 -7z"/>
<path d="M3444 1597 c-3 -8 -4 -32 -2 -53 l3 -39 56 -3 56 -3 -1 53 -1 53 -53
3 c-39 3 -53 0 -58 -11z"/>
<path d="M5132 1603 c-19 -4 -22 -10 -20 -38 1 -18 7 -40 12 -47 17 -23 55
-40 70 -31 24 14 65 69 58 79 -24 33 -68 46 -120 37z"/>
<path d="M1749 1581 c-4 -51 9 -89 32 -96 42 -14 104 78 68 101 -6 4 -31 8
-55 9 -34 1 -44 -2 -45 -14z"/>
<path d="M2053 1438 c-34 -50 -35 -62 -14 -90 39 -49 81 -38 96 24 5 21 0 33
-27 62 l-33 36 -22 -32z"/>
<path d="M4845 1435 c-50 -49 -19 -115 55 -115 35 0 42 4 51 27 12 33 5 67
-21 93 -27 27 -56 25 -85 -5z"/>
<path d="M2359 1296 c-52 -26 -66 -114 -19 -126 58 -16 89 24 76 94 -8 40 -24
49 -57 32z"/>
<path d="M4575 1260 c-38 -39 -38 -40 -20 -60 20 -22 70 -39 97 -32 15 3 17
14 15 56 -5 89 -30 99 -92 36z"/>
<path d="M3436 1257 c-3 -12 -6 -36 -6 -54 0 -37 12 -43 81 -42 l47 1 0 42 c2
67 -2 72 -62 74 -48 1 -54 -1 -60 -21z"/>
<path d="M2600 1098 c-52 -49 11 -110 84 -82 19 7 23 79 5 89 -23 15 -70 11
-89 -7z"/>
<path d="M4293 1103 c-71 -36 -41 -93 48 -93 29 0 29 1 29 55 0 51 -2 55 -22
54 -13 0 -37 -7 -55 -16z"/>
<path d="M2887 948 c-36 -10 -38 -12 -32 -42 9 -42 23 -53 74 -60 51 -7 61 1
61 51 0 22 -7 37 -22 47 -25 18 -28 18 -81 4z"/>
<path d="M4007 943 c-3 -7 -2 -43 2 -87 1 -12 14 -13 78 -7 6 0 18 14 26 31
15 28 14 31 -10 50 -25 19 -88 28 -96 13z"/>
<path d="M3439 900 c-1 -22 -2 -47 -3 -56 0 -9 14 -25 33 -35 31 -17 35 -17
60 -1 36 23 36 24 33 81 l-4 51 -59 0 -59 0 -1 -40z"/>
<path d="M3753 799 c-31 -11 -46 -45 -38 -85 10 -54 61 -69 104 -30 27 25 34
51 21 76 -15 29 -60 49 -87 39z"/>
<path d="M3168 793 c-10 -2 -18 -8 -19 -11 -7 -51 -3 -95 9 -104 21 -18 82
-13 104 9 25 26 27 82 3 99 -18 14 -62 17 -97 7z"/>
<path d="M3446 625 c-44 -47 -5 -127 56 -119 47 5 61 22 55 66 -9 70 -69 98
-111 53z"/>
</g>
</svg>
