<svg xmlns="http://www.w3.org/2000/svg" viewBox="0 0 96 96">
  <g fill="#fa0">
    <path d="M26.72 9.67c9.03-4.65 19.53-5.56 29.47-4.21 15.84 2.46 29.6 13.91 35.95 28.47 2.5 5.57 3.28 11.68 3.86 17.71v2.22c-.26 2.45-.63 4.89-.96 7.33H79.99c.01-9.09-.12-18.19-.03-27.28-10.71-6.22-21.43-12.44-32.22-18.52-10.34 5.82-20.54 11.89-30.8 17.85-1.95.78-1.58 3.06-1.68 4.75-.01 7.73-.07 15.46-.13 23.2H.97c-.32-2.34-.7-4.67-.97-7.01v-2.39c.36-3.71.75-7.44 1.59-11.08C4.87 27.34 14.58 15.94 26.72 9.67z"/>
    <path d="M20.06 34.78c9.26-5.35 18.5-10.74 27.76-16.08 9.31 5.35 18.59 10.74 27.92 16.06-9.17 5.52-18.52 10.75-27.74 16.2-9.29-5.44-18.67-10.71-27.94-16.18zM18.59 37.4C27.76 42.69 37 47.88 46.06 53.36c0 2.61-.02 5.22-.05 7.83h-27.4c-.01-7.93.03-15.86-.02-23.79zM49.22 53.51c9.26-5.38 18.48-10.82 27.75-16.17.11 7.94-.11 15.89-.21 23.84-9.08.02-18.16 0-27.24.01-.09-2.56-.19-5.12-.3-7.68zM16.2 64.64c1.44-1.15 3 1.39 1.62 2.38-1.49 1.23-3.08-1.38-1.62-2.38zM47.18 65.13c1.59-.55 2.13.01 1.62 1.68-1.6.55-2.14-.01-1.62-1.68zM77.94 64.96c1.56-.49 2.07.11 1.53 1.8-1.58.48-2.09-.11-1.53-1.8zM16.13 69.51c1.66-.5 2.23.04 1.71 1.61-1.66.51-2.23-.03-1.71-1.61zM47.97 72.29c-1.79.05-1.75-2.97.01-2.96 1.81-.05 1.69 2.89-.01 2.96zM77.67 71.28c-1.08-1.15.76-3.12 1.87-1.77 1.29 1.16-.78 2.91-1.87 1.77zM19.52 72.18c.56-1.63 3.54-.76 2.78.94-.67 1.45-3.5.81-2.78-.94zM73.89 71.64c1.18-1.07 3.2.92 1.69 1.9-1.2 1.1-3.03-.87-1.69-1.9zM23.98 74.11c1.41-.51 1.88-.06 1.4 1.36-1.41.51-1.87.06-1.4-1.36zM47.11 73.95c1.68-.54 2.25-.02 1.72 1.55-1.67.54-2.24.02-1.72-1.55zM70.14 73.96c1.67-.51 2.25.03 1.71 1.6-1.66.5-2.23-.04-1.71-1.6zM27.58 76.15c2.81-2.86 2.93 4.46-.01 1.8 0-.45.01-1.35.01-1.8zM66.25 76.18c1.63-.49 2.17.08 1.63 1.69-1.63.48-2.17-.08-1.63-1.69zM31.38 78.3c2.84-2.88 2.91 4.38-.09 1.75.02-.44.07-1.31.09-1.75zM47.06 78.18c1.37-1.12 3.38 1.19 1.73 2.19-1.38 1.13-3.3-1.17-1.73-2.19zM62.5 78.33c1.6-.58 2.12-.04 1.56 1.62-1.62.57-2.14.03-1.56-1.62zM36.25 80.35c3.31.71-1.41 3.96-1.18.76.3-.19.88-.57 1.18-.76zM58.47 80.58c1.13-1.26 2.99.62 1.86 1.77-1.08 1.12-3.24-.63-1.86-1.77zM39.29 82.88c1.66-.47 2.23.08 1.73 1.66-1.65.46-2.23-.1-1.73-1.66zM47.15 83.17c1.62-.52 2.16.04 1.63 1.69-1.61.52-2.16-.05-1.63-1.69zM54.66 83.05c.8-1.27 2.86.12 1.87 1.31-.79 1.28-2.8-.13-1.87-1.31zM43.2 85.11c1.63-.53 2.18.03 1.65 1.65-1.62.52-2.17-.03-1.65-1.65zM50.97 85.11c1.6-.51 2.14.05 1.62 1.69-1.6.52-2.14-.05-1.62-1.69zM47.09 87.28c1.62-.49 2.19.07 1.68 1.67-1.64.5-2.2-.06-1.68-1.67z"/>
  </g>
</svg>
