<svg xmlns="http://www.w3.org/2000/svg" viewBox="0 0 96 96">
  <g fill="#fa0">
    <path d="M43.13 0h9.62c3.88 2.58 1.38 7.3 2.5 11.02.68 5.61 2.64 11.07 6.32 15.42 3.28 3.74 4.98 8.6 4.94 13.56.08 13.34-.02 26.69.04 40.03-.07 3.96.07 8.17-1.78 11.79-1.41 2.66-4.51 3.52-7.22 4.18H38.47c-2.22-.72-4.83-1.19-6.28-3.21-2.32-3.08-2.55-7.1-2.55-10.81.01-13.32.03-26.65-.01-39.98.03-3.1.04-6.3 1.23-9.22 1.71-4.6 5.65-7.88 7.59-12.37 2.2-5.12 3.2-10.75 2.89-16.32-.23-1.62 1.02-2.81 1.79-4.09m1.04 2.96c.8 5.94-.79 11.88-2.66 17.47-1.76 5.5-6.88 9.13-8.5 14.69-.61 2.58-.46 5.25-.5 7.88.08 14-.09 28 .08 42-.13 3.33 1.51 7.63 5.38 7.79 6.94.59 13.99.69 20.91-.12 4.05-.5 4.6-5.37 4.78-8.62.05-15.34.18-30.69-.06-46.02-.22-7.62-7.65-12.02-9.47-19.09-1.29-5.21-2.88-10.66-1.86-16.05-2.7-.05-5.4-.04-8.1.07z"/>
    <path d="M35.31 47.88c8.51-.65 17.1-.35 25.64-.15.04 10.43-.01 20.86.03 31.29-.06 3.07 0 6.45-1.89 9.05-1.72 2.01-4.66 1.65-7.03 1.83-4.45-.13-9.02.47-13.37-.65-2.67-1.3-3.34-4.51-3.28-7.21-.12-11.39.07-22.78-.1-34.16z"/>
  </g>
</svg>
