<svg xmlns="http://www.w3.org/2000/svg" viewBox="0 0 96 96">
  <g fill="#fa0">
    <path d="M63.95 8.24c2.14-1.25 4.28-2.49 6.43-3.72 1.63 1.79 3.18 3.64 4.68 5.55 1.15-.05 2.31-.1 3.46-.17 1.33-1.9 2.8-3.69 4.37-5.4 2.18 1.19 4.34 2.44 6.45 3.75-.84 3.14-3.67 6.49-1.21 9.56 2.49.19 4.95.63 7.37 1.2.02 2.45.03 4.91.04 7.36-2.37.57-4.8.84-7.22 1.06-2.92 3 .34 6.39.89 9.66-1.97 1.47-4.19 2.58-6.31 3.81-2.39-2.21-3.67-6.47-7.6-5.96-1.58 2.01-3.15 4.02-4.78 5.99-2.21-1.24-4.4-2.51-6.56-3.84.85-2.28 1.73-4.56 2.75-6.77-1.14-4.07-5.67-3.01-8.85-3.9.01-2.48.02-4.95.02-7.42 2.35-.55 4.73-.97 7.13-1.19.56-.89 1.11-1.79 1.66-2.68-.95-2.28-1.86-4.58-2.72-6.89m10.49 8.31c-3.6 1.37-5.71 6.16-3.34 9.48 2.55 4.92 11.03 3.66 11.87-1.88 1.34-4.74-3.99-9.6-8.53-7.6zM26.09 16.72c3.91-.25 7.84-.25 11.76 0 .49 2.82.67 5.77 1.69 8.45 1.13.72 2.36 1.24 3.56 1.82 2.31-1.79 4.65-3.53 6.99-5.28 2.94 2.62 5.73 5.41 8.31 8.39-1.6 2.29-3.33 4.47-5 6.7.57 1.43 1.16 2.86 1.77 4.27 2.83.82 6.37.16 8.67 2.16.33 3.48.38 7.03-.15 10.49-2.75.97-5.67 1.27-8.55 1.63-.6 1.39-1.17 2.8-1.72 4.22 1.69 2.12 3.53 4.16 4.86 6.54-2.11 3.27-4.91 6.23-8.3 8.19-2.45-1.27-4.48-3.18-6.64-4.86-1.38.55-2.75 1.11-4.12 1.69-.29 2.89-.62 5.82-1.61 8.58-3.69.51-7.49.5-11.19.01-.88-2.78-1.25-5.68-1.65-8.56-1.34-.56-2.68-1.11-4.03-1.63-2.22 1.64-4.31 3.5-6.78 4.77-3.24-2.13-6.03-5.01-8.13-8.27 1.37-2.31 3.14-4.35 4.81-6.44-.61-1.45-1.23-2.9-1.85-4.35C5.84 54.8 2.92 54.2 0 53.58V42.73c2.89-.89 5.89-1.36 8.87-1.87.6-1.3 1.18-2.62 1.76-3.94C8.95 34.7 7 32.65 5.7 30.16c2.13-3.37 5.28-5.89 8.29-8.43 2.29 1.75 4.57 3.52 6.84 5.3 1.27-.68 2.75-1.1 3.81-2.13.55-2.71.99-5.45 1.45-8.18m3.39 18.73c-4.63.89-8.58 4.43-10.01 8.92-2.05 6.27 1.53 13.58 7.71 15.84 7.74 3.37 17.65-2.66 17.83-11.17.91-8.19-7.59-15.46-15.53-13.59zM63.95 59.24c2.13-1.25 4.26-2.51 6.41-3.74 1.65 1.78 3.21 3.65 4.69 5.59 4.05 1.02 5.42-3.37 7.84-5.6 2.18 1.2 4.32 2.45 6.44 3.74-.82 3.15-3.65 6.49-1.21 9.57 2.49.19 4.95.61 7.38 1.19.02 2.46.03 4.92.04 7.39-2.36.56-4.78.82-7.19 1.05-2.98 2.96.3 6.37.86 9.63-1.96 1.49-4.17 2.62-6.31 3.83-1.63-1.86-3.21-3.77-4.72-5.74-.74-.02-2.22-.05-2.96-.06-1.57 1.95-3.12 3.92-4.73 5.84-2.2-1.25-4.37-2.52-6.53-3.83.86-2.32 1.75-4.63 2.78-6.88-1.31-3.92-5.68-2.94-8.88-3.79.01-2.48.02-4.95.02-7.43 2.35-.58 4.73-.99 7.14-1.21.56-.89 1.11-1.79 1.66-2.68-.96-2.27-1.86-4.56-2.73-6.87m10.4 8.33c-3.52 1.43-5.59 6.1-3.27 9.4 2.51 5 11.1 3.73 11.89-1.86 1.33-4.77-4.09-9.63-8.62-7.54z"/>
  </g>
</svg>
